<?xml version="1.0" encoding="utf-8"?>
<!-- Generator: Adobe Illustrator 23.0.3, SVG Export Plug-In . SVG Version: 6.00 Build 0)  -->
<svg version="1.1" id="Layer_1" xmlns="http://www.w3.org/2000/svg" xmlns:xlink="http://www.w3.org/1999/xlink" x="0px" y="0px"
	 viewBox="0 0 90 90" style="enable-background:new 0 0 90 90;" xml:space="preserve">
<g>
	<path d="M44.2,9.7c-0.2-0.3-0.6-0.5-1-0.5c-0.4,0-0.7,0.2-1,0.5l-17.9,18H9.2c-0.7,0-1.5,0.7-1.5,1.4v30.2c0,0.7,0.6,1.5,1.4,1.5
		h15.3l17.9,17.8c0.2,0.2,0.6,0.3,0.9,0.3c0,0,0.1,0,0.1,0c0.4,0,0.7-0.2,1-0.6C69.9,42.3,44.5,10.1,44.2,9.7z M10.3,30.4h13.2v27.8
		H10.3C10.3,58.2,10.3,30.4,10.3,30.4z M43,75.6L26.2,58.8V29.4L43,12.6C47.1,18.5,63.4,45.4,43,75.6z"/>
	<path d="M57.5,9.5c-0.5-0.6-1.3-0.7-1.9-0.2c-0.6,0.5-0.7,1.3-0.2,1.9c0.2,0.3,24.5,30.9-0.1,65.5c-0.4,0.6-0.3,1.4,0.3,1.8
		c0.2,0.2,0.5,0.2,0.8,0.2c0.4,0,0.8-0.2,1.1-0.6C83.2,42,57.8,9.8,57.5,9.5z"/>
	<path d="M68.8,9.5c-0.5-0.6-1.3-0.7-1.9-0.2c-0.6,0.5-0.7,1.3-0.2,1.9c1,1.2,24.4,31-0.1,65.5c-0.4,0.6-0.3,1.4,0.3,1.8
		c0.2,0.2,0.5,0.2,0.8,0.2c0.4,0,0.8-0.2,1.1-0.6C94.5,42,69,9.8,68.8,9.5z"/>
</g>
</svg>
