<?xml version="1.0" encoding="utf-8"?>
<!-- Generator: Adobe Illustrator 23.0.3, SVG Export Plug-In . SVG Version: 6.00 Build 0)  -->
<svg version="1.1" id="Layer_1" xmlns="http://www.w3.org/2000/svg" xmlns:xlink="http://www.w3.org/1999/xlink" x="0px" y="0px"
	 viewBox="0 0 90 90" style="enable-background:new 0 0 90 90;" xml:space="preserve">
<g>
	<path d="M1,23.4v1.5v40.2v1.5v17.2h88v-16v-2.7V24.9v-5V6.2H1V23.4z M4,9.2h82v10.7v2H4V9.2z M4,24.9h82v40.2H4V24.9z M4,68.1h82
		v12.7H4V68.1z"/>
	<rect x="78.8" y="13" width="3" height="5.2"/>
	<rect x="67" y="13" width="3" height="5.2"/>
	<rect x="55.3" y="13" width="3" height="5.2"/>
	<rect x="43.5" y="13" width="3" height="5.2"/>
	<rect x="31.7" y="13" width="3" height="5.2"/>
	<rect x="20" y="13" width="3" height="5.2"/>
	<rect x="8.2" y="13" width="3" height="5.2"/>
	<rect x="78.8" y="71.8" width="3" height="5.2"/>
	<rect x="67" y="71.8" width="3" height="5.2"/>
	<rect x="55.3" y="71.8" width="3" height="5.2"/>
	<rect x="43.5" y="71.8" width="3" height="5.2"/>
	<rect x="31.7" y="71.8" width="3" height="5.2"/>
	<rect x="20" y="71.8" width="3" height="5.2"/>
	<rect x="8.2" y="71.8" width="3" height="5.2"/>
	<path d="M41.8,34.4v13.1l9.3-6.6L41.8,34.4z M44.8,40.2l1.1,0.8l-1.1,0.8V40.2z"/>
	<path d="M45,53.1c6.7,0,12.2-5.5,12.2-12.2S51.7,28.7,45,28.7s-12.2,5.5-12.2,12.2S38.3,53.1,45,53.1z M45,31.7
		c5.1,0,9.2,4.1,9.2,9.2s-4.1,9.2-9.2,9.2s-9.2-4.1-9.2-9.2S39.9,31.7,45,31.7z"/>
	<polygon points="48.1,55.3 31.1,55.3 21.5,55.3 21.5,58.3 31.1,58.3 48.1,58.3 68.5,58.3 68.5,55.3 	"/>
	<circle cx="29.9" cy="56.7" r="5.3"/>
</g>
</svg>
