<?xml version="1.0" encoding="utf-8"?>
<!-- Generator: Adobe Illustrator 23.0.3, SVG Export Plug-In . SVG Version: 6.00 Build 0)  -->
<svg version="1.1" id="Layer_1" xmlns="http://www.w3.org/2000/svg" xmlns:xlink="http://www.w3.org/1999/xlink" x="0px" y="0px"
	 viewBox="0 0 90 90" style="enable-background:new 0 0 90 90;" xml:space="preserve">
<style type="text/css">
	.st0{display:none;}
	.st1{display:inline;}
	.st2{fill-rule:evenodd;clip-rule:evenodd;}
</style>
<g class="st0">
	<rect x="25.8" y="24.5" class="st1" width="400.8" height="199.3"/>
</g>
<g class="st0">
	<g class="st1">
		<polygon points="37,29 37,29 31.8,34.3 37,34.3 		"/>
		<path d="M45.5,50.1h-1.4v3.4h1.3c0.4,0,0.7-0.1,0.9-0.3c0.1-0.2,0.2-0.7,0.2-1.4c0-0.7-0.1-1.2-0.2-1.4S45.9,50.1,45.5,50.1z"/>
		<path d="M58.2,29H38v6.3h-6.2V61h26.5L58.2,29L58.2,29z M42.2,52.3c-0.2,0.2-0.7,0.3-1.3,0.3h-0.2h-1.1v1.6h-1v-4.9h2h0.2
			c0.7,0,1.1,0.1,1.3,0.3c0.2,0.2,0.3,0.7,0.3,1.3C42.6,51.6,42.4,52.1,42.2,52.3z M40.5,42.4v-1h9v1H40.5z M47.1,53.7
			c-0.2,0.4-0.7,0.5-1.5,0.5h-2.4v-4.9h2.4c0.7,0,1.2,0.1,1.4,0.5c0.3,0.3,0.4,0.8,0.4,1.6C47.4,52.5,47.3,53.3,47.1,53.7z
			 M51.4,50.1H49v1.3h2.2v0.8H49v2h-0.9v-4.9h3.3V50.1z M52.1,38.5H37.9v-1H52L52.1,38.5L52.1,38.5z"/>
		<path d="M40.7,50.1h-1.2v1.8h1.1c0.4,0,0.7,0,0.8-0.1c0.1-0.1,0.2-0.3,0.2-0.7s0-0.7-0.1-0.8C41.4,50.1,41.1,50.1,40.7,50.1z"/>
	</g>
</g>
<g class="st0">
	<g class="st1">
		<path d="M40.9,48.8h-2.4V54h1.2v-1.6h1h0.2c0.7,0,1.2-0.1,1.4-0.4c0.2-0.2,0.4-0.7,0.4-1.4c0-0.7-0.1-1.2-0.4-1.4
			C42,48.9,41.6,48.8,40.9,48.8z M41.5,50.6c0,0.4-0.1,0.6-0.1,0.6c-0.1,0-0.2,0.1-0.7,0.1h-0.9v-1.5h1c0.5,0,0.6,0.1,0.6,0.1
			S41.5,50.1,41.5,50.6z"/>
		<path d="M45.6,48.8H43V54h2.6c0.8,0,1.4-0.2,1.6-0.6c0.2-0.4,0.4-1.2,0.4-2.4c0-0.8-0.1-1.3-0.4-1.7
			C46.8,48.9,46.3,48.8,45.6,48.8z M44.2,49.8h1.3c0.4,0,0.6,0.1,0.7,0.2s0.2,0.4,0.2,1.3c0,0.8-0.1,1.2-0.2,1.3
			c-0.1,0.2-0.4,0.3-0.8,0.3h-1.2V49.8L44.2,49.8z"/>
		<polygon points="48,53.9 49.2,53.9 49.2,51.9 51.4,51.9 51.4,50.9 49.2,50.9 49.2,49.8 51.5,49.8 51.5,48.8 48,48.8 		"/>
		<rect x="37.9" y="37.8" width="14.1" height="2"/>
		<rect x="40.5" y="41.7" width="9" height="2"/>
		<path d="M58.2,29H37l-5.2,5.3V61h26.5L58.2,29L58.2,29z M36.7,32.2V34h-1.8L36.7,32.2z M56.2,59H33.8V35.9h5V31h17.5L56.2,59
			L56.2,59z"/>
	</g>
</g>
<g class="st0">
	<g class="st1">
		<path d="M40.9,48.8h-0.2h-2v4.9h0.9v-1.6h1.1h0.2c0.7,0,1.1-0.1,1.3-0.3s0.3-0.7,0.3-1.3c0-0.7-0.1-1.1-0.3-1.3
			C42,48.9,41.5,48.8,40.9,48.8z M41.4,51.2c-0.1,0.1-0.4,0.1-0.8,0.1h-1.1v-1.8h1.2c0.4,0,0.6,0,0.7,0.1c0.1,0.1,0.1,0.4,0.1,0.8
			C41.6,50.9,41.5,51.1,41.4,51.2z"/>
		<path d="M45.6,48.8h-2.4v4.9h2.4c0.8,0,1.3-0.2,1.5-0.5c0.2-0.3,0.3-1.1,0.3-2.4c0-0.8-0.1-1.3-0.4-1.6
			C46.7,48.9,46.3,48.8,45.6,48.8z M46.3,52.6c-0.1,0.2-0.4,0.3-0.9,0.3h-1.3v-3.4h1.4c0.4,0,0.7,0.1,0.8,0.3s0.2,0.7,0.2,1.4
			C46.5,52,46.4,52.4,46.3,52.6z"/>
		<polygon points="48.1,53.7 49,53.7 49,51.7 51.2,51.7 51.2,50.9 49,50.9 49,49.6 51.4,49.6 51.4,48.8 48.1,48.8 		"/>
		<rect x="37.9" y="37.8" width="14.1" height="0.5"/>
		<rect x="40.5" y="41.7" width="9" height="0.5"/>
		<path d="M58.2,29H37l-5.2,5.3V61h26.5L58.2,29L58.2,29z M37.1,29.6v4.8h-4.7L37.1,29.6z M57.8,60.5H32.2V34.9h5.4v-5.4h20.1
			L57.8,60.5L57.8,60.5z"/>
	</g>
</g>
<path class="st2" d="M25.7,29.7c-5.4,5.4-7.6,11.9-7.6,19.5c0,15.7,11.4,27.4,27.4,27.4c12.8-2.4,20.3-9.2,24.1-16.8
	c4.9-9.5,2.2-23.1-3.3-28.2C54.8,19.4,37.7,18.1,25.7,29.7L25.7,29.7z M27.9,31.9c3.3-3.3,7.6-5.7,12.2-6.2C39,27,38,28.9,36.9,31.4
	c-1.1,2.4-1.9,5.4-2.4,8.7H22.8C24.1,36.8,25.7,34.1,27.9,31.9z M21.9,42.7L21.9,42.7h12.2c0,4.1,0,8.1-0.3,11.9
	c-4.1,0-8.1,0-12.2,0c-0.3-1.6-0.3-3.5-0.5-5.4C21.4,46.8,21.7,44.6,21.9,42.7z M42.8,27.3c1.1-1.1,1.9-1.6,2.2-1.6
	c1.1,0,2.2,0.5,3.3,1.4c1.1,1.1,2.2,2.7,3,4.9c0.8,2.2,1.6,4.6,2.2,7.6H37.7c0.5-2.7,1.4-5.2,2.2-7.3C40.9,30,41.8,28.4,42.8,27.3z
	 M51.2,25.9c7.9,1.6,13.8,6.5,16.8,13.8H56.7c-0.5-3.3-1.4-6.2-2.4-9C53.4,28.9,52.3,27.3,51.2,25.9L51.2,25.9z M37.1,42.7h16.5
	c0.3,2.2,0.3,4.6,0.3,7.3c0,1.6,0,3.3-0.3,4.6H36.6C36.6,50.6,36.9,46.5,37.1,42.7L37.1,42.7z M22.5,57.7h11.7
	c0.5,4.1,1.4,7.6,2.7,10.3c0.8,1.9,1.9,3.5,3,4.9C31.2,71.2,24.9,65.5,22.5,57.7L22.5,57.7z M37.4,57.7h16.3
	c-0.5,3.3-1.4,6.2-2.2,8.7c-1.6,4.1-3.8,6.5-5.7,6.8c-1.1,0-2.2-0.5-3.3-1.4c-1.1-1.1-2.2-2.7-3-4.9C38.5,64.4,38,61.2,37.4,57.7z
	 M56.9,42.7h11.9c0.5,2.2,0.8,4.6,0.8,7.1c0,1.6-0.3,3.3-0.5,4.9l0,0H57.2c0-1.6,0.3-3,0.3-4.6C57.2,47.4,57.2,44.9,56.9,42.7
	L56.9,42.7z M56.7,57.7h11.1c-3,7.1-9.2,13-16.5,14.9c1.1-1.4,2.2-3.3,3-5.4C55.3,64.4,56.1,61.2,56.7,57.7L56.7,57.7z"/>
<g>
	<g>
		<path d="M80.6,1.4H23.2L8.9,15.7V88h71.7V1.4z M22.7,5.7v9.6h-9.6L22.7,5.7z M77.9,85.3H11.6V18h13.9V4.1h52.4V85.3z"/>
	</g>
</g>
</svg>
