<?xml version="1.0" encoding="utf-8"?>
<!-- Generator: Adobe Illustrator 23.0.3, SVG Export Plug-In . SVG Version: 6.00 Build 0)  -->
<svg version="1.1" id="Layer_1" xmlns="http://www.w3.org/2000/svg" xmlns:xlink="http://www.w3.org/1999/xlink" x="0px" y="0px"
	 viewBox="0 0 90 90" style="enable-background:new 0 0 90 90;" xml:space="preserve">
<path d="M3.8,85.8h81.8V3.7H3.8V85.8z M6.5,6.6h76.1v65.3H6.5V6.6z M6.5,74.6h76.1V83H6.5V74.6z"/>
<polygon points="45.6,42.5 36.4,33.1 17.2,53 19.3,54.9 36.4,37.1 53.7,54.9 55.7,53 47.6,44.6 54.7,37.1 69.9,54.9 72,53.1 
	54.7,33.1 "/>
<path d="M45.6,35c3.2,0,6-2.7,6-6s-2.7-6-6-6c-3.2,0-6,2.7-6,6C39.7,32.4,42.3,35,45.6,35z M45.6,26c1.8,0,3.2,1.5,3.2,3.2
	s-1.5,3.2-3.2,3.2s-3.2-1.5-3.2-3.2S43.9,26,45.6,26z"/>
<path d="M11.2,66.4h66.9V12.2H11.2V66.4z M14,15h61.2v48.5H14L14,15L14,15z"/>
</svg>
