<?xml version="1.0" encoding="utf-8"?>
<!-- Generator: Adobe Illustrator 23.0.3, SVG Export Plug-In . SVG Version: 6.00 Build 0)  -->
<svg version="1.1" id="Layer_1" xmlns="http://www.w3.org/2000/svg" xmlns:xlink="http://www.w3.org/1999/xlink" x="0px" y="0px"
	 viewBox="0 0 90 90" style="enable-background:new 0 0 90 90;" xml:space="preserve">
<style type="text/css">
	.st0{display:none;}
	.st1{display:inline;}
	.st2{font-family:'MyriadPro-Semibold';}
	.st3{font-size:26.4126px;}
</style>
<g class="st0">
	<rect x="25.8" y="24.5" class="st1" width="400.8" height="199.3"/>
</g>
<g>
	<g>
		<rect x="26.6" y="24.5" width="38.2" height="2.7"/>
		<rect x="33.6" y="35" width="24.3" height="2.7"/>
		<path d="M81.6,1.4H24.2L9.9,15.7V88h71.7V1.4z M23.7,5.7v9.6h-9.6L23.7,5.7z M78.9,85.3H12.6V18h13.9V4.1h52.4V85.3z"/>
	</g>
</g>
<g class="st0">
	<g class="st1">
		<polygon points="37,29 37,29 31.8,34.3 37,34.3 		"/>
		<path d="M45.5,50.1h-1.4v3.4h1.3c0.4,0,0.7-0.1,0.9-0.3c0.1-0.2,0.2-0.7,0.2-1.4c0-0.7-0.1-1.2-0.2-1.4
			C46.2,50.2,45.9,50.1,45.5,50.1z"/>
		<path d="M58.2,29H38v6.3h-6.3V61h26.5V29z M42.2,52.3c-0.2,0.2-0.7,0.3-1.3,0.3l-0.2,0h-1.1v1.6h-0.9v-4.9h2h0.2
			c0.7,0,1.1,0.1,1.3,0.3c0.2,0.2,0.3,0.7,0.3,1.3C42.6,51.6,42.4,52.1,42.2,52.3z M40.5,42.4v-1h9v1H40.5z M47.1,53.7
			c-0.2,0.4-0.7,0.5-1.5,0.5h-2.4v-4.9h2.4c0.7,0,1.2,0.1,1.4,0.5c0.3,0.3,0.4,0.8,0.4,1.6C47.4,52.5,47.3,53.3,47.1,53.7z
			 M51.4,50.1H49v1.3h2.2v0.8H49v2h-0.9v-4.9h3.3V50.1z M52.1,38.5H37.9v-1h14.1L52.1,38.5L52.1,38.5z"/>
		<path d="M40.7,50.1h-1.2v1.8h1.1c0.4,0,0.7,0,0.8-0.1c0.1-0.1,0.2-0.3,0.2-0.7c0-0.4,0-0.7-0.1-0.8C41.4,50.1,41.1,50.1,40.7,50.1
			z"/>
	</g>
</g>
<g class="st0">
	<g class="st1">
		<path d="M40.9,48.8h-2.4v5.2h1.2v-1.6h1l0.2,0c0.7,0,1.2-0.1,1.4-0.4c0.2-0.2,0.4-0.7,0.4-1.4c0-0.7-0.1-1.2-0.4-1.4
			C42,48.9,41.6,48.8,40.9,48.8z M41.5,50.6c0,0.4-0.1,0.6-0.1,0.6c-0.1,0-0.2,0.1-0.7,0.1h-0.9v-1.5h1c0.5,0,0.6,0.1,0.7,0.1
			C41.4,49.9,41.5,50.1,41.5,50.6z"/>
		<path d="M45.6,48.8H43v5.2h2.6c0.8,0,1.4-0.2,1.6-0.6c0.2-0.4,0.4-1.2,0.4-2.4c0-0.8-0.1-1.3-0.4-1.7
			C46.8,48.9,46.3,48.8,45.6,48.8z M44.2,49.8h1.3c0.4,0,0.6,0.1,0.7,0.2c0.1,0.1,0.2,0.4,0.2,1.3c0,0.8-0.1,1.2-0.2,1.3
			c-0.1,0.2-0.4,0.3-0.8,0.3h-1.2L44.2,49.8L44.2,49.8z"/>
		<polygon points="48,53.9 49.2,53.9 49.2,51.9 51.4,51.9 51.4,50.9 49.2,50.9 49.2,49.8 51.5,49.8 51.5,48.8 48,48.8 		"/>
		<rect x="37.9" y="37.8" width="14.1" height="2"/>
		<rect x="40.5" y="41.7" width="9" height="2"/>
		<path d="M58.2,29H37l-5.3,5.3V61h26.5V29z M36.7,32.2v1.8h-1.8L36.7,32.2z M56.2,59H33.8V35.9h5V31h17.5V59z"/>
	</g>
</g>
<g class="st0">
	<g class="st1">
		<path d="M40.9,48.8h-0.2h-2v4.9h0.9v-1.6h1.1l0.2,0c0.7,0,1.1-0.1,1.3-0.3c0.2-0.2,0.3-0.7,0.3-1.3c0-0.7-0.1-1.1-0.3-1.3
			C42,48.9,41.5,48.8,40.9,48.8z M41.4,51.2c-0.1,0.1-0.4,0.1-0.8,0.1h-1.1v-1.8h1.2c0.4,0,0.6,0,0.7,0.1c0.1,0.1,0.1,0.4,0.1,0.8
			C41.6,50.9,41.5,51.1,41.4,51.2z"/>
		<path d="M45.6,48.8h-2.4v4.9h2.4c0.8,0,1.3-0.2,1.5-0.5c0.2-0.3,0.3-1.1,0.3-2.4c0-0.8-0.1-1.3-0.4-1.6
			C46.7,48.9,46.3,48.8,45.6,48.8z M46.3,52.6c-0.1,0.2-0.4,0.3-0.9,0.3h-1.3v-3.3h1.4c0.4,0,0.7,0.1,0.8,0.3
			c0.1,0.2,0.2,0.7,0.2,1.4C46.5,52,46.4,52.4,46.3,52.6z"/>
		<polygon points="48.1,53.7 49,53.7 49,51.7 51.2,51.7 51.2,50.9 49,50.9 49,49.6 51.4,49.6 51.4,48.8 48.1,48.8 		"/>
		<rect x="37.9" y="37.8" width="14.1" height="0.5"/>
		<rect x="40.5" y="41.7" width="9" height="0.5"/>
		<path d="M58.2,29H37l-5.3,5.3V61h26.5V29z M37.1,29.6v4.8h-4.8L37.1,29.6z M57.8,60.5H32.2V34.9h5.4v-5.4h20.1V60.5z"/>
	</g>
</g>
<text transform="matrix(1 0 0 1 22.7637 73.0645)" class="st2 st3">PDF</text>
</svg>
