<?xml version="1.0" encoding="utf-8"?>
<!-- Generator: Adobe Illustrator 23.0.3, SVG Export Plug-In . SVG Version: 6.00 Build 0)  -->
<svg version="1.1" id="Layer_1" xmlns="http://www.w3.org/2000/svg" xmlns:xlink="http://www.w3.org/1999/xlink" x="0px" y="0px"
	 viewBox="0 0 90 90" style="enable-background:new 0 0 90 90;" xml:space="preserve">
<style type="text/css">
	.st0{display:none;}
	.st1{display:inline;}
	.st2{enable-background:new    ;}
</style>
<g class="st0">
	<rect x="25.8" y="24.5" class="st1" width="400.8" height="199.3"/>
</g>
<g>
	<g>
		<path d="M81.6,1.4H24.2L9.9,15.7V88h71.7V1.4z M23.7,5.7v9.6h-9.6L23.7,5.7z M78.9,85.3H12.6V18h13.9V4.1h52.4V85.3z"/>
	</g>
</g>
<g class="st0">
	<g class="st1">
		<polygon points="37,29 37,29 31.8,34.3 37,34.3 		"/>
		<path d="M45.5,50.1h-1.4v3.4h1.3c0.4,0,0.7-0.1,0.9-0.3c0.1-0.2,0.2-0.7,0.2-1.4s-0.1-1.2-0.2-1.4C46.2,50.2,45.9,50.1,45.5,50.1z
			"/>
		<path d="M58.2,29H38v6.3h-6.3V61h26.5V29z M42.2,52.3c-0.2,0.2-0.7,0.3-1.3,0.3h-0.2h-1.1v1.6h-0.9v-4.9h2h0.2
			c0.7,0,1.1,0.1,1.3,0.3s0.3,0.7,0.3,1.3C42.6,51.6,42.4,52.1,42.2,52.3z M40.5,42.4v-1h9v1H40.5z M47.1,53.7
			c-0.2,0.4-0.7,0.5-1.5,0.5h-2.4v-4.9h2.4c0.7,0,1.2,0.1,1.4,0.5c0.3,0.3,0.4,0.8,0.4,1.6C47.4,52.5,47.3,53.3,47.1,53.7z
			 M51.4,50.1H49v1.3h2.2v0.8H49v2h-0.9v-4.9h3.3C51.4,49.3,51.4,50.1,51.4,50.1z M52.1,38.5H37.9v-1H52L52.1,38.5L52.1,38.5z"/>
		<path d="M40.7,50.1h-1.2v1.8h1.1c0.4,0,0.7,0,0.8-0.1s0.2-0.3,0.2-0.7s0-0.7-0.1-0.8C41.4,50.1,41.1,50.1,40.7,50.1z"/>
	</g>
</g>
<g class="st0">
	<g class="st1">
		<path d="M40.9,48.8h-2.4V54h1.2v-1.6h1h0.2c0.7,0,1.2-0.1,1.4-0.4c0.2-0.2,0.4-0.7,0.4-1.4s-0.1-1.2-0.4-1.4
			C42,48.9,41.6,48.8,40.9,48.8z M41.5,50.6c0,0.4-0.1,0.6-0.1,0.6c-0.1,0-0.2,0.1-0.7,0.1h-0.9v-1.5h1c0.5,0,0.6,0.1,0.7,0.1
			C41.4,49.9,41.5,50.1,41.5,50.6z"/>
		<path d="M45.6,48.8H43V54h2.6c0.8,0,1.4-0.2,1.6-0.6c0.2-0.4,0.4-1.2,0.4-2.4c0-0.8-0.1-1.3-0.4-1.7
			C46.8,48.9,46.3,48.8,45.6,48.8z M44.2,49.8h1.3c0.4,0,0.6,0.1,0.7,0.2c0.1,0.1,0.2,0.4,0.2,1.3c0,0.8-0.1,1.2-0.2,1.3
			c-0.1,0.2-0.4,0.3-0.8,0.3h-1.2V49.8L44.2,49.8z"/>
		<polygon points="48,53.9 49.2,53.9 49.2,51.9 51.4,51.9 51.4,50.9 49.2,50.9 49.2,49.8 51.5,49.8 51.5,48.8 48,48.8 		"/>
		<rect x="37.9" y="37.8" width="14.1" height="2"/>
		<rect x="40.5" y="41.7" width="9" height="2"/>
		<path d="M58.2,29H37l-5.3,5.3V61h26.5V29z M36.7,32.2V34h-1.8L36.7,32.2z M56.2,59H33.8V35.9h5V31h17.5L56.2,59L56.2,59z"/>
	</g>
</g>
<g class="st0">
	<g class="st1">
		<path d="M40.9,48.8h-0.2h-2v4.9h0.9v-1.6h1.1h0.2c0.7,0,1.1-0.1,1.3-0.3s0.3-0.7,0.3-1.3c0-0.7-0.1-1.1-0.3-1.3
			C42,48.9,41.5,48.8,40.9,48.8z M41.4,51.2c-0.1,0.1-0.4,0.1-0.8,0.1h-1.1v-1.8h1.2c0.4,0,0.6,0,0.7,0.1c0.1,0.1,0.1,0.4,0.1,0.8
			C41.6,50.9,41.5,51.1,41.4,51.2z"/>
		<path d="M45.6,48.8h-2.4v4.9h2.4c0.8,0,1.3-0.2,1.5-0.5s0.3-1.1,0.3-2.4c0-0.8-0.1-1.3-0.4-1.6C46.7,48.9,46.3,48.8,45.6,48.8z
			 M46.3,52.6c-0.1,0.2-0.4,0.3-0.9,0.3h-1.3v-3.3h1.4c0.4,0,0.7,0.1,0.8,0.3s0.2,0.7,0.2,1.4S46.4,52.4,46.3,52.6z"/>
		<polygon points="48.1,53.7 49,53.7 49,51.7 51.2,51.7 51.2,50.9 49,50.9 49,49.6 51.4,49.6 51.4,48.8 48.1,48.8 		"/>
		<rect x="37.9" y="37.8" width="14.1" height="0.5"/>
		<rect x="40.5" y="41.7" width="9" height="0.5"/>
		<path d="M58.2,29H37l-5.3,5.3V61h26.5V29z M37.1,29.6v4.8h-4.8L37.1,29.6z M57.8,60.5H32.2V34.9h5.4v-5.4h20.1L57.8,60.5
			L57.8,60.5z"/>
	</g>
</g>
<g class="st2">
	<path d="M26.6,55.5c1.2-0.2,2.8-0.4,5-0.4c2.4,0,4.1,0.5,5.2,1.5c1.1,0.9,1.7,2.3,1.7,3.9c0,1.7-0.5,3.1-1.5,4
		c-1.3,1.3-3.3,1.9-5.6,1.9c-0.6,0-1.1,0-1.6-0.1v6.7h-3.2V55.5z M29.9,63.8c0.4,0.1,0.9,0.2,1.6,0.2c2.4,0,3.9-1.2,3.9-3.3
		c0-2-1.4-3-3.6-3c-0.9,0-1.5,0.1-1.9,0.2V63.8z"/>
	<path d="M41.4,55.5c1.2-0.2,2.8-0.4,5-0.4c2.4,0,4.1,0.5,5.2,1.5c1.1,0.9,1.7,2.3,1.7,3.9c0,1.7-0.5,3.1-1.5,4
		c-1.3,1.3-3.3,1.9-5.6,1.9c-0.6,0-1.1,0-1.6-0.1v6.7h-3.2V55.5z M44.6,63.8c0.4,0.1,0.9,0.2,1.6,0.2c2.4,0,3.9-1.2,3.9-3.3
		c0-2-1.4-3-3.6-3c-0.9,0-1.5,0.1-1.9,0.2V63.8z"/>
	<path d="M59.6,58h-5.1v-2.7h13.4V58h-5.1v15.1h-3.2V58z"/>
</g>
<g>
	<path d="M30.2,20.5v21.6h31V20.5H30.2z M58.6,39.5H32.9V22.9h25.7C58.6,22.9,58.6,39.5,58.6,39.5z"/>
</g>
<rect x="46.9" y="39.5" transform="matrix(0.7071 -0.7071 0.7071 0.7071 -16.1388 46.68)" width="2.7" height="6.6"/>
<rect x="39.8" y="41.5" transform="matrix(0.7071 -0.7071 0.7071 0.7071 -17.6426 43.033)" width="6.6" height="2.7"/>
<rect x="45" y="18.6" width="2.7" height="3.3"/>
</svg>
