<svg id="Layer_1" data-name="Layer 1" xmlns="http://www.w3.org/2000/svg" viewBox="0 0 207 207"><defs><style>.cls-1{fill:#00a14b;}.cls-2{fill:#f26522;}.cls-2,.cls-4{opacity:0.35;}.cls-3{fill:#005eac;}.cls-4{fill:#fbb040;}</style></defs><title>Goal</title><path class="cls-1" d="M103,198.66A94.07,94.07,0,0,1,84.68,12.33,94,94,0,0,1,195.31,86.19a94.07,94.07,0,0,1-73.86,110.64A95.13,95.13,0,0,1,103,198.66Zm.18-176.06A82,82,0,1,0,119.08,185,82,82,0,0,0,103.16,22.6Z"/><path class="cls-2" d="M111,36a69.55,69.55,0,0,1,55.38,97.81l-30.58-17.7a34.2,34.2,0,0,0,1.18-17.42A34.59,34.59,0,0,0,109.8,71.26Z"/><path class="cls-3" d="M38.6,131.6a67.55,67.55,0,0,1-4-13.44A69.65,69.65,0,0,1,90,36.82q3.08-.6,6.16-.92l.35,35.27A34.65,34.65,0,0,0,70.09,116Z"/><path class="cls-4" d="M158.43,147.07a69.49,69.49,0,0,1-111.54-.72L77,128a34.59,34.59,0,0,0,51.55.41Z"/></svg>