<?xml version="1.0" encoding="utf-8"?>
<!-- Generator: Adobe Illustrator 23.0.4, SVG Export Plug-In . SVG Version: 6.00 Build 0)  -->
<svg version="1.1" id="Layer_1" xmlns="http://www.w3.org/2000/svg" xmlns:xlink="http://www.w3.org/1999/xlink" x="0px" y="0px"
	 viewBox="0 0 90 90" style="enable-background:new 0 0 90 90;" xml:space="preserve">
<style type="text/css">
	.st0{fill:none;}
</style>
<path style="fill: #264B65;" d="M77.7,66h-2.5c-0.1-0.4-0.3-0.8-0.5-1.2l1.8-1.8c0.5-0.5,0.8-1.1,0.8-1.8c0-0.7-0.3-1.3-0.8-1.8l-3-3
	c-0.5-0.5-1.1-0.8-1.8-0.8c-0.7,0-1.4,0.3-1.8,0.8l-1.8,1.8c-0.4-0.2-0.8-0.3-1.2-0.5v-2.6c0-1.4-1.1-2.6-2.6-2.6H60
	c-1.4,0-2.5,1.1-2.5,2.5v2.5c-0.4,0.1-0.8,0.3-1.2,0.5l-1.8-1.8c-0.5-0.5-1.1-0.8-1.8-0.8c-0.7,0-1.4,0.3-1.8,0.8l-3,3
	c-0.5,0.5-0.8,1.1-0.8,1.8c0,0.7,0.3,1.3,0.8,1.8l1.8,1.8c-0.2,0.4-0.3,0.8-0.5,1.2h-2.6c-1.4,0-2.6,1.2-2.6,2.6v4.3
	c0,1.4,1.2,2.6,2.6,2.6h2.5c0.1,0.4,0.3,0.8,0.5,1.2l-1.8,1.8C47.3,78.7,47,79.3,47,80c0,0.7,0.3,1.3,0.8,1.8l3,3
	c0.5,0.5,1.1,0.8,1.8,0.8c0.7,0,1.4-0.3,1.8-0.8l1.8-1.8c0.4,0.2,0.8,0.3,1.2,0.5V86c0,1.4,1.2,2.6,2.6,2.6h4.3
	c1.4,0,2.6-1.2,2.6-2.6v-2.5c0.4-0.1,0.8-0.3,1.2-0.5l1.8,1.8c0.5,0.5,1.1,0.8,1.8,0.8c0.7,0,1.4-0.3,1.8-0.8l3-3
	c1-0.7,1.3-2.1,0.6-3.2c-0.1-0.2-0.2-0.3-0.4-0.4l-1.7-1.8c0.2-0.4,0.3-0.8,0.5-1.2h2.5c1.4,0,2.6-1.1,2.6-2.6v-4.3
	C80.3,67.1,79.1,66,77.7,66z M72.9,72.2l-0.3,1.2c-0.2,0.9-0.6,1.8-1.1,2.7l-0.6,1.1l3,3l-2.2,2l-3-3l-1.1,0.6
	c-0.8,0.5-1.7,0.9-2.7,1.1l-1.2,0.3v4.3h-3v-4.3L59.4,81c-0.9-0.2-1.8-0.6-2.6-1.1l-1.1-0.6l-3,3l-2.1-2.1l3-3L52.9,76
	c-0.5-0.8-0.9-1.7-1.1-2.6l-0.3-1.3h-4.2v-3h4.3l0.3-1.2c0.2-0.9,0.6-1.8,1.1-2.7l0.6-1.1l-3.1-3l2.1-2.1l3,3l1.1-0.6
	c0.8-0.5,1.7-0.9,2.7-1.1l1.3-0.3v-4.3h3V60l1.2,0.3c0.9,0.2,1.8,0.6,2.7,1.1l1.1,0.6l3-3l2.1,2.1l-3,3l0.6,1.1
	c0.5,0.8,0.9,1.7,1.1,2.7l0.3,1.3h4.3v3H72.9z"/>
<path style="fill: #264B65;" d="M62.2,64.4C62.2,64.4,62.2,64.4,62.2,64.4c-1.7,0-3.3,0.7-4.5,1.8c-1.2,1.2-1.8,2.8-1.8,4.4c0,1.7,0.7,3.3,1.8,4.5
	c1.2,1.2,2.8,1.8,4.4,1.8c0,0,0,0,0,0c1.7,0,3.3-0.7,4.4-1.8c1.2-1.2,1.8-2.8,1.9-4.5C68.5,67.2,65.7,64.4,62.2,64.4z M65.2,70.6
	c0,1.7-1.4,3-3,3c0,0,0,0,0,0c-1.7,0-3.1-1.4-3.1-3c0-0.8,0.3-1.6,0.9-2.2c0.6-0.6,1.3-0.9,2.2-0.9c0,0,0,0,0,0
	c0.8,0,1.6,0.3,2.2,0.9C64.9,69,65.2,69.8,65.2,70.6z"/>
<g style="fill: #264B65;">
	<ellipse transform="matrix(0.9871 -0.1602 0.1602 0.9871 -2.6042 6.9111)" class="st0" cx="41.6" cy="19.6" rx="12.9" ry="12.9"/>
	<path d="M15.5,73.5V59.3c0-7.9,6.3-14.2,14.2-14.2h23.7c3.7,0,7.2,1.5,9.7,3.9h5.3c-3.3-4.7-8.8-7.8-14.9-7.8H29.7
		c-10.1,0-18.2,8.1-18.2,18.2v18.2h28.7v-4.1H15.5z"/>
	<path d="M41.6,36.4c9.3,0,16.8-7.5,16.8-16.8c0-9.3-7.5-16.8-16.8-16.8c-9.3,0-16.8,7.5-16.8,16.8C24.8,28.9,32.3,36.4,41.6,36.4z
		 M41.6,6.7c7.2,0,12.9,5.7,12.9,12.9s-5.7,12.9-12.9,12.9s-12.9-5.8-12.9-12.9S34.4,6.7,41.6,6.7z"/>
</g>
</svg>
