<svg id="Layer_1" data-name="Layer 1" xmlns="http://www.w3.org/2000/svg" viewBox="0 0 207 207"><defs><style>.cls-1{fill:#00a14b;}.cls-2{fill:#f26522;}.cls-3{fill:#005eac;}.cls-3,.cls-4{opacity:0.35;}.cls-4{fill:#fbb040;}</style></defs><title>observation</title><path class="cls-1" d="M101.83,197.13A94.07,94.07,0,0,1,83.53,10.8,94,94,0,0,1,194.16,84.67,94.07,94.07,0,0,1,120.3,195.31,95.11,95.11,0,0,1,101.83,197.13Zm.18-176a82,82,0,0,0-.18,164,82.45,82.45,0,0,0,16.1-1.59A82,82,0,0,0,102,21.08Z"/><path class="cls-2" d="M109.8,34.52a69.55,69.55,0,0,1,55.38,97.8l-30.58-17.7a34.16,34.16,0,0,0,1.18-17.41,34.57,34.57,0,0,0-27.13-27.47Z"/><path class="cls-3" d="M37.45,130.07a67.16,67.16,0,0,1-4-13.44A69.64,69.64,0,0,1,88.83,35.3c2.06-.41,4.1-.71,6.16-.93l.35,35.28a34.64,34.64,0,0,0-27.53,40.46,35.24,35.24,0,0,0,1.13,4.39Z"/><path class="cls-4" d="M157.28,145.54a69.48,69.48,0,0,1-111.54-.71L75.83,126.5a34.61,34.61,0,0,0,51.55.42Z"/></svg>