<svg id="Layer_1" data-name="Layer 1" xmlns="http://www.w3.org/2000/svg" viewBox="0 0 207 207"><defs><style>.cls-1{fill:#00a14b;}.cls-2{fill:#f26522;}.cls-2,.cls-3{opacity:0.35;}.cls-3{fill:#005eac;}.cls-4{fill:#fbb040;}</style></defs><title>reflection</title><path class="cls-1" d="M102.67,195.16A94.07,94.07,0,0,1,84.37,8.83,94,94,0,0,1,195,82.7a94.12,94.12,0,0,1-92.32,112.46Zm.17-176A83.4,83.4,0,0,0,86.73,20.7a81.91,81.91,0,1,0,16.11-1.59Z"/><path class="cls-2" d="M110.64,32.55A69.55,69.55,0,0,1,166,130.35l-30.58-17.7a34.16,34.16,0,0,0,1.18-17.41,34.59,34.59,0,0,0-27.13-27.47Z"/><path class="cls-3" d="M38.29,128.1a67.84,67.84,0,0,1-4-13.44A69.65,69.65,0,0,1,89.67,33.33q3.08-.61,6.16-.93l.35,35.28a34.65,34.65,0,0,0-27.54,40.46,33.58,33.58,0,0,0,1.14,4.39Z"/><path class="cls-4" d="M158.11,143.57a69.47,69.47,0,0,1-111.53-.71l30.09-18.33a34.61,34.61,0,0,0,51.55.42Z"/></svg>