<?xml version="1.0" encoding="utf-8"?>
<!-- Generator: Adobe Illustrator 23.0.4, SVG Export Plug-In . SVG Version: 6.00 Build 0)  -->
<svg version="1.1" id="Layer_1" xmlns="http://www.w3.org/2000/svg" xmlns:xlink="http://www.w3.org/1999/xlink" x="0px" y="0px"
	 viewBox="0 0 90 90" style="enable-background:new 0 0 90 90;" xml:space="preserve">
<g style="fill: #264B65;">
	<polygon points="26,56.6 23.4,54.1 21.7,55.9 26.2,60.3 34,50.7 32.1,49.1 	"/>
	<polygon points="26,71.1 23.4,68.6 21.7,70.5 26.2,74.9 34,65.3 32.1,63.7 	"/>
	<rect x="38.9" y="51.4" width="28.4" height="1.9"/>
	<rect x="38.9" y="56.1" width="28.4" height="1.9"/>
	<rect x="38.9" y="65.9" width="28.4" height="1.9"/>
	<rect x="38.9" y="70.7" width="28.4" height="1.9"/>
	<path d="M31.7,38.3c6.9,0,12.4-5.6,12.4-12.4H31.7V13.4c-6.9,0-12.4,5.6-12.4,12.4S24.9,38.3,31.7,38.3z M29.8,15.5v10.4v1.9h1.9
		h10.4c-0.9,4.9-5.2,8.6-10.4,8.6c-5.8,0-10.5-4.7-10.5-10.5C21.2,20.7,24.9,16.4,29.8,15.5z"/>
	<path d="M33.1,12.1v12.4h12.4C45.5,17.6,39.9,12.1,33.1,12.1z M35,14.1c4.3,0.8,7.7,4.2,8.5,8.5H35V14.1z"/>
	<rect x="49.9" y="31.8" width="1.9" height="4.4"/>
	<rect x="53.8" y="21.6" width="1.9" height="14.5"/>
	<rect x="57.6" y="14.2" width="1.9" height="21.9"/>
	<rect x="61.4" y="21.1" width="1.9" height="15"/>
	<rect x="65.3" y="28.2" width="1.9" height="7.9"/>
	<path d="M77.1,1.4H11.8v87h65.3V1.4z M75.2,86.5H13.8V3.3h61.5V86.5z"/>
</g>
</svg>
